<mxfile host="Electron" modified="2023-11-18T15:55:07.912Z" agent="Mozilla/5.0 (Windows NT 10.0; Win64; x64) AppleWebKit/537.36 (KHTML, like Gecko) draw.io/22.1.2 Chrome/114.0.5735.289 Electron/25.9.4 Safari/537.36" etag="B9M0GfJiwglD1LzY8l7N" version="22.1.2" type="device">
  <diagram name="第 1 页" id="sjo1OVe89GbtLrY6qROT">
    <mxGraphModel dx="2062" dy="731" grid="1" gridSize="10" guides="1" tooltips="1" connect="1" arrows="1" fold="1" page="1" pageScale="1" pageWidth="827" pageHeight="1169" math="0" shadow="0">
      <root>
        <mxCell id="0" />
        <mxCell id="1" parent="0" />
        <mxCell id="8g6e14rjjNuszMgN_Tb9-34" value="" style="group" vertex="1" connectable="0" parent="1">
          <mxGeometry x="-10" y="50" width="878" height="490" as="geometry" />
        </mxCell>
        <mxCell id="8g6e14rjjNuszMgN_Tb9-23" style="edgeStyle=orthogonalEdgeStyle;rounded=0;orthogonalLoop=1;jettySize=auto;html=1;exitX=0;exitY=0.5;exitDx=0;exitDy=0;endArrow=none;endFill=0;startArrow=classic;startFill=1;" edge="1" parent="8g6e14rjjNuszMgN_Tb9-34" source="8g6e14rjjNuszMgN_Tb9-1">
          <mxGeometry relative="1" as="geometry">
            <mxPoint x="90" y="150" as="targetPoint" />
          </mxGeometry>
        </mxCell>
        <mxCell id="8g6e14rjjNuszMgN_Tb9-1" value="&lt;font style=&quot;font-size: 15px;&quot;&gt;hw_light: Green&lt;br&gt;lr_light: Red&lt;br&gt;&lt;/font&gt;" style="rounded=1;whiteSpace=wrap;html=1;" vertex="1" parent="8g6e14rjjNuszMgN_Tb9-34">
          <mxGeometry x="130" y="110" width="160" height="80" as="geometry" />
        </mxCell>
        <mxCell id="8g6e14rjjNuszMgN_Tb9-2" value="&lt;font style=&quot;font-size: 15px;&quot;&gt;hw_light: Yellow&lt;br style=&quot;border-color: var(--border-color);&quot;&gt;lr_light: Red&lt;/font&gt;" style="rounded=1;whiteSpace=wrap;html=1;" vertex="1" parent="8g6e14rjjNuszMgN_Tb9-34">
          <mxGeometry x="410" y="110" width="160" height="80" as="geometry" />
        </mxCell>
        <mxCell id="8g6e14rjjNuszMgN_Tb9-3" value="&lt;font style=&quot;font-size: 15px;&quot;&gt;hw_light: Red&lt;br style=&quot;border-color: var(--border-color);&quot;&gt;lr_light: Red&lt;/font&gt;" style="rounded=1;whiteSpace=wrap;html=1;" vertex="1" parent="8g6e14rjjNuszMgN_Tb9-34">
          <mxGeometry x="690" y="110" width="160" height="80" as="geometry" />
        </mxCell>
        <mxCell id="8g6e14rjjNuszMgN_Tb9-4" value="&lt;font style=&quot;font-size: 15px;&quot;&gt;hw_light: Red&lt;br style=&quot;border-color: var(--border-color);&quot;&gt;lr_light: Green&lt;/font&gt;" style="rounded=1;whiteSpace=wrap;html=1;" vertex="1" parent="8g6e14rjjNuszMgN_Tb9-34">
          <mxGeometry x="690" y="310" width="160" height="80" as="geometry" />
        </mxCell>
        <mxCell id="8g6e14rjjNuszMgN_Tb9-7" style="edgeStyle=orthogonalEdgeStyle;rounded=0;orthogonalLoop=1;jettySize=auto;html=1;exitX=1;exitY=0.5;exitDx=0;exitDy=0;entryX=0;entryY=0.5;entryDx=0;entryDy=0;" edge="1" parent="8g6e14rjjNuszMgN_Tb9-34" source="8g6e14rjjNuszMgN_Tb9-1" target="8g6e14rjjNuszMgN_Tb9-2">
          <mxGeometry relative="1" as="geometry" />
        </mxCell>
        <mxCell id="8g6e14rjjNuszMgN_Tb9-5" value="&lt;font style=&quot;font-size: 15px;&quot;&gt;hw_light: Red&lt;br style=&quot;border-color: var(--border-color);&quot;&gt;lr_light: Yellow&lt;/font&gt;" style="rounded=1;whiteSpace=wrap;html=1;" vertex="1" parent="8g6e14rjjNuszMgN_Tb9-34">
          <mxGeometry x="410" y="310" width="160" height="80" as="geometry" />
        </mxCell>
        <mxCell id="8g6e14rjjNuszMgN_Tb9-8" style="edgeStyle=orthogonalEdgeStyle;rounded=0;orthogonalLoop=1;jettySize=auto;html=1;exitX=1;exitY=0.5;exitDx=0;exitDy=0;entryX=0;entryY=0.5;entryDx=0;entryDy=0;" edge="1" parent="8g6e14rjjNuszMgN_Tb9-34" source="8g6e14rjjNuszMgN_Tb9-2" target="8g6e14rjjNuszMgN_Tb9-3">
          <mxGeometry relative="1" as="geometry" />
        </mxCell>
        <mxCell id="8g6e14rjjNuszMgN_Tb9-12" style="edgeStyle=orthogonalEdgeStyle;rounded=0;orthogonalLoop=1;jettySize=auto;html=1;exitX=0.5;exitY=0;exitDx=0;exitDy=0;entryX=0.5;entryY=1;entryDx=0;entryDy=0;" edge="1" parent="8g6e14rjjNuszMgN_Tb9-34" source="8g6e14rjjNuszMgN_Tb9-6" target="8g6e14rjjNuszMgN_Tb9-1">
          <mxGeometry relative="1" as="geometry" />
        </mxCell>
        <mxCell id="8g6e14rjjNuszMgN_Tb9-6" value="&lt;font style=&quot;font-size: 15px;&quot;&gt;hw_light: Red&lt;br style=&quot;border-color: var(--border-color);&quot;&gt;lr_light: Red&lt;/font&gt;" style="rounded=1;whiteSpace=wrap;html=1;" vertex="1" parent="8g6e14rjjNuszMgN_Tb9-34">
          <mxGeometry x="130" y="310" width="160" height="80" as="geometry" />
        </mxCell>
        <mxCell id="8g6e14rjjNuszMgN_Tb9-14" style="edgeStyle=orthogonalEdgeStyle;rounded=0;orthogonalLoop=1;jettySize=auto;html=1;exitX=1;exitY=0.25;exitDx=0;exitDy=0;entryX=0.75;entryY=0;entryDx=0;entryDy=0;" edge="1" parent="8g6e14rjjNuszMgN_Tb9-34" source="8g6e14rjjNuszMgN_Tb9-1" target="8g6e14rjjNuszMgN_Tb9-1">
          <mxGeometry relative="1" as="geometry">
            <Array as="points">
              <mxPoint x="310" y="130" />
              <mxPoint x="310" y="70" />
              <mxPoint x="250" y="70" />
            </Array>
          </mxGeometry>
        </mxCell>
        <mxCell id="8g6e14rjjNuszMgN_Tb9-9" style="edgeStyle=orthogonalEdgeStyle;rounded=0;orthogonalLoop=1;jettySize=auto;html=1;exitX=0.5;exitY=1;exitDx=0;exitDy=0;entryX=0.5;entryY=0;entryDx=0;entryDy=0;" edge="1" parent="8g6e14rjjNuszMgN_Tb9-34" source="8g6e14rjjNuszMgN_Tb9-3" target="8g6e14rjjNuszMgN_Tb9-4">
          <mxGeometry relative="1" as="geometry" />
        </mxCell>
        <mxCell id="8g6e14rjjNuszMgN_Tb9-15" style="edgeStyle=orthogonalEdgeStyle;rounded=0;orthogonalLoop=1;jettySize=auto;html=1;exitX=1;exitY=0.75;exitDx=0;exitDy=0;entryX=0.75;entryY=1;entryDx=0;entryDy=0;" edge="1" parent="8g6e14rjjNuszMgN_Tb9-34" source="8g6e14rjjNuszMgN_Tb9-1" target="8g6e14rjjNuszMgN_Tb9-1">
          <mxGeometry relative="1" as="geometry">
            <Array as="points">
              <mxPoint x="310" y="170" />
              <mxPoint x="310" y="230" />
              <mxPoint x="250" y="230" />
            </Array>
          </mxGeometry>
        </mxCell>
        <mxCell id="8g6e14rjjNuszMgN_Tb9-16" style="edgeStyle=orthogonalEdgeStyle;rounded=0;orthogonalLoop=1;jettySize=auto;html=1;exitX=1;exitY=0.25;exitDx=0;exitDy=0;entryX=0.5;entryY=0;entryDx=0;entryDy=0;" edge="1" parent="8g6e14rjjNuszMgN_Tb9-34" source="8g6e14rjjNuszMgN_Tb9-2" target="8g6e14rjjNuszMgN_Tb9-2">
          <mxGeometry relative="1" as="geometry">
            <Array as="points">
              <mxPoint x="590" y="130" />
              <mxPoint x="590" y="70" />
              <mxPoint x="490" y="70" />
            </Array>
          </mxGeometry>
        </mxCell>
        <mxCell id="8g6e14rjjNuszMgN_Tb9-10" style="edgeStyle=orthogonalEdgeStyle;rounded=0;orthogonalLoop=1;jettySize=auto;html=1;exitX=0;exitY=0.5;exitDx=0;exitDy=0;entryX=1;entryY=0.5;entryDx=0;entryDy=0;" edge="1" parent="8g6e14rjjNuszMgN_Tb9-34" source="8g6e14rjjNuszMgN_Tb9-4" target="8g6e14rjjNuszMgN_Tb9-5">
          <mxGeometry relative="1" as="geometry" />
        </mxCell>
        <mxCell id="8g6e14rjjNuszMgN_Tb9-17" style="edgeStyle=orthogonalEdgeStyle;rounded=0;orthogonalLoop=1;jettySize=auto;html=1;exitX=0.5;exitY=1;exitDx=0;exitDy=0;entryX=1;entryY=0.5;entryDx=0;entryDy=0;" edge="1" parent="8g6e14rjjNuszMgN_Tb9-34" source="8g6e14rjjNuszMgN_Tb9-4" target="8g6e14rjjNuszMgN_Tb9-4">
          <mxGeometry relative="1" as="geometry">
            <Array as="points">
              <mxPoint x="770" y="430" />
              <mxPoint x="870" y="430" />
              <mxPoint x="870" y="350" />
            </Array>
          </mxGeometry>
        </mxCell>
        <mxCell id="8g6e14rjjNuszMgN_Tb9-11" style="edgeStyle=orthogonalEdgeStyle;rounded=0;orthogonalLoop=1;jettySize=auto;html=1;exitX=0;exitY=0.5;exitDx=0;exitDy=0;" edge="1" parent="8g6e14rjjNuszMgN_Tb9-34" source="8g6e14rjjNuszMgN_Tb9-5" target="8g6e14rjjNuszMgN_Tb9-6">
          <mxGeometry relative="1" as="geometry" />
        </mxCell>
        <mxCell id="8g6e14rjjNuszMgN_Tb9-18" style="edgeStyle=orthogonalEdgeStyle;rounded=0;orthogonalLoop=1;jettySize=auto;html=1;exitX=0;exitY=0.75;exitDx=0;exitDy=0;entryX=0.5;entryY=1;entryDx=0;entryDy=0;" edge="1" parent="8g6e14rjjNuszMgN_Tb9-34" source="8g6e14rjjNuszMgN_Tb9-5" target="8g6e14rjjNuszMgN_Tb9-5">
          <mxGeometry relative="1" as="geometry">
            <Array as="points">
              <mxPoint x="390" y="370" />
              <mxPoint x="390" y="430" />
              <mxPoint x="490" y="430" />
            </Array>
          </mxGeometry>
        </mxCell>
        <mxCell id="8g6e14rjjNuszMgN_Tb9-19" value="&lt;div&gt;state:&amp;nbsp; &amp;nbsp; &amp;nbsp; &amp;nbsp;A;&lt;/div&gt;&lt;div&gt;&lt;span style=&quot;background-color: initial;&quot;&gt;hw_light: Green;&lt;/span&gt;&lt;/div&gt;&lt;div&gt;lr_light:&amp;nbsp; &amp;nbsp; Red;&lt;/div&gt;&lt;div&gt;count:&amp;nbsp; &amp;nbsp; &amp;nbsp; 7&#39;d0;&lt;/div&gt;" style="text;html=1;strokeColor=#d6b656;fillColor=#fff2cc;align=left;verticalAlign=middle;whiteSpace=wrap;rounded=0;" vertex="1" parent="8g6e14rjjNuszMgN_Tb9-34">
          <mxGeometry y="120" width="90" height="60" as="geometry" />
        </mxCell>
        <mxCell id="8g6e14rjjNuszMgN_Tb9-21" value="&lt;div&gt;count == 7&#39;d69&lt;/div&gt;&lt;div&gt;&amp;amp;&amp;amp; !lr_has_car&lt;/div&gt;&lt;div&gt;---------------------&lt;/div&gt;&lt;div&gt;count &amp;lt;= 7&#39;d69;&lt;/div&gt;" style="text;html=1;strokeColor=#d6b656;fillColor=#fff2cc;align=left;verticalAlign=middle;whiteSpace=wrap;rounded=0;" vertex="1" parent="8g6e14rjjNuszMgN_Tb9-34">
          <mxGeometry x="230" width="90" height="60" as="geometry" />
        </mxCell>
        <mxCell id="8g6e14rjjNuszMgN_Tb9-22" value="&lt;div&gt;count != 7&#39;d69&lt;/div&gt;&lt;div&gt;------------------------&lt;/div&gt;&lt;div&gt;count &amp;lt;= count+1;&lt;/div&gt;" style="text;html=1;strokeColor=#d6b656;fillColor=#fff2cc;align=left;verticalAlign=middle;whiteSpace=wrap;rounded=0;" vertex="1" parent="8g6e14rjjNuszMgN_Tb9-34">
          <mxGeometry x="250" y="240" width="106" height="50" as="geometry" />
        </mxCell>
        <mxCell id="8g6e14rjjNuszMgN_Tb9-24" value="&lt;div&gt;count == 7&#39;d69&lt;/div&gt;&lt;div&gt;&amp;amp;&amp;amp; lr_has_car&lt;/div&gt;&lt;div&gt;--------------------&lt;/div&gt;&lt;div&gt;count &amp;lt;= 7&#39;d0;&lt;/div&gt;" style="text;html=1;strokeColor=#d6b656;fillColor=#fff2cc;align=left;verticalAlign=middle;whiteSpace=wrap;rounded=0;" vertex="1" parent="8g6e14rjjNuszMgN_Tb9-34">
          <mxGeometry x="314" y="80" width="86" height="60" as="geometry" />
        </mxCell>
        <mxCell id="8g6e14rjjNuszMgN_Tb9-25" value="&lt;div&gt;count == 7&#39;d24&lt;/div&gt;&lt;div&gt;--------------------&lt;/div&gt;&lt;div&gt;count &amp;lt;= 7&#39;d0;&lt;/div&gt;" style="text;html=1;strokeColor=#d6b656;fillColor=#fff2cc;align=left;verticalAlign=middle;whiteSpace=wrap;rounded=0;" vertex="1" parent="8g6e14rjjNuszMgN_Tb9-34">
          <mxGeometry x="604" y="90" width="86" height="50" as="geometry" />
        </mxCell>
        <mxCell id="8g6e14rjjNuszMgN_Tb9-26" value="&lt;div&gt;count != 7&#39;d69&lt;/div&gt;&lt;div&gt;--------------------------&lt;/div&gt;&lt;div&gt;count &amp;lt;= count + 1;&lt;/div&gt;" style="text;html=1;strokeColor=#d6b656;fillColor=#fff2cc;align=left;verticalAlign=middle;whiteSpace=wrap;rounded=0;" vertex="1" parent="8g6e14rjjNuszMgN_Tb9-34">
          <mxGeometry x="768" y="440" width="110" height="50" as="geometry" />
        </mxCell>
        <mxCell id="8g6e14rjjNuszMgN_Tb9-27" value="&lt;div&gt;&amp;nbsp;&lt;/div&gt;&lt;div&gt;--------------------&lt;/div&gt;&lt;div&gt;count &amp;lt;= 7&#39;d0;&lt;/div&gt;" style="text;html=1;strokeColor=#d6b656;fillColor=#fff2cc;align=left;verticalAlign=middle;whiteSpace=wrap;rounded=0;" vertex="1" parent="8g6e14rjjNuszMgN_Tb9-34">
          <mxGeometry x="780" y="220" width="86" height="50" as="geometry" />
        </mxCell>
        <mxCell id="8g6e14rjjNuszMgN_Tb9-28" value="&lt;div&gt;count == 7&#39;d69&lt;/div&gt;&lt;div&gt;---------------------&lt;span style=&quot;background-color: initial;&quot;&gt;count &amp;lt;= 7&#39;d0;&lt;/span&gt;&lt;/div&gt;" style="text;html=1;strokeColor=#d6b656;fillColor=#fff2cc;align=left;verticalAlign=middle;whiteSpace=wrap;rounded=0;" vertex="1" parent="8g6e14rjjNuszMgN_Tb9-34">
          <mxGeometry x="590" y="360" width="90" height="50" as="geometry" />
        </mxCell>
        <mxCell id="8g6e14rjjNuszMgN_Tb9-29" value="&lt;div&gt;count == 7&#39;d24&lt;/div&gt;&lt;div&gt;--------------------&lt;/div&gt;&lt;div&gt;count &amp;lt;= 7&#39;d0;&lt;/div&gt;" style="text;html=1;strokeColor=#d6b656;fillColor=#fff2cc;align=left;verticalAlign=middle;whiteSpace=wrap;rounded=0;" vertex="1" parent="8g6e14rjjNuszMgN_Tb9-34">
          <mxGeometry x="300" y="360" width="86" height="50" as="geometry" />
        </mxCell>
        <mxCell id="8g6e14rjjNuszMgN_Tb9-30" value="&lt;div&gt;count != 7&#39;d24&lt;/div&gt;&lt;div&gt;--------------------------&lt;/div&gt;&lt;div&gt;count &amp;lt;= count + 1;&lt;/div&gt;" style="text;html=1;strokeColor=#d6b656;fillColor=#fff2cc;align=left;verticalAlign=middle;whiteSpace=wrap;rounded=0;" vertex="1" parent="8g6e14rjjNuszMgN_Tb9-34">
          <mxGeometry x="490" y="10" width="110" height="50" as="geometry" />
        </mxCell>
        <mxCell id="8g6e14rjjNuszMgN_Tb9-31" value="&lt;div&gt;count != 7&#39;d24&lt;/div&gt;&lt;div&gt;--------------------------&lt;/div&gt;&lt;div&gt;count &amp;lt;= count + 1;&lt;/div&gt;" style="text;html=1;strokeColor=#d6b656;fillColor=#fff2cc;align=left;verticalAlign=middle;whiteSpace=wrap;rounded=0;" vertex="1" parent="8g6e14rjjNuszMgN_Tb9-34">
          <mxGeometry x="386" y="440" width="110" height="50" as="geometry" />
        </mxCell>
        <mxCell id="8g6e14rjjNuszMgN_Tb9-32" value="&lt;div&gt;&amp;nbsp;&lt;/div&gt;&lt;div&gt;--------------------&lt;/div&gt;&lt;div&gt;count &amp;lt;= 7&#39;d0;&lt;/div&gt;" style="text;html=1;strokeColor=#d6b656;fillColor=#fff2cc;align=left;verticalAlign=middle;whiteSpace=wrap;rounded=0;" vertex="1" parent="8g6e14rjjNuszMgN_Tb9-34">
          <mxGeometry x="110" y="230" width="86" height="50" as="geometry" />
        </mxCell>
        <mxCell id="8g6e14rjjNuszMgN_Tb9-33" value="reset" style="text;html=1;strokeColor=none;fillColor=none;align=center;verticalAlign=middle;whiteSpace=wrap;rounded=0;" vertex="1" parent="8g6e14rjjNuszMgN_Tb9-34">
          <mxGeometry x="90" y="150" width="40" height="30" as="geometry" />
        </mxCell>
      </root>
    </mxGraphModel>
  </diagram>
</mxfile>
